<svg xmlns="http://www.w3.org/2000/svg" viewBox="0 0 148.25 155.25"><defs><style>.cls-1{fill:#d71313;}.cls-2{fill:#cdcdcb;}.cls-3{fill:#fff;}</style></defs><title>Ativo 2</title><g id="Camada_2" data-name="Camada 2"><g id="Layer_1" data-name="Layer 1"><path d="M125.25,34.12a2.49,2.49,0,0,1-2.5-2.5V15.12a2.5,2.5,0,0,1,5,0v16.5A2.49,2.49,0,0,1,125.25,34.12Z"/><circle class="cls-1" cx="125.25" cy="7.38" r="7.25"/><path d="M125.25,14.75a7.38,7.38,0,1,1,7.37-7.37A7.39,7.39,0,0,1,125.25,14.75Zm0-14.5a7.13,7.13,0,1,0,7.12,7.13A7.14,7.14,0,0,0,125.25.25Z"/><rect class="cls-2" x="0.12" y="33.13" width="148" height="122"/><path class="cls-2" d="M148.25,155.25H0V33H148.25ZM.25,155H148V33.25H.25Z"/><ellipse class="cls-3" cx="37.37" cy="78.88" rx="32.75" ry="33.25"/><path d="M37.37,113.12c-18.6,0-33.75-15.36-33.75-34.24S18.77,44.62,37.37,44.62,71.12,60,71.12,78.88,56,113.12,37.37,113.12Zm0-66.5c-17.5,0-31.75,14.47-31.75,32.26s14.25,32.24,31.75,32.24S69.12,96.66,69.12,78.88,54.88,46.62,37.37,46.62Z"/><circle cx="47.37" cy="64.38" r="6.75"/><ellipse class="cls-3" cx="111.37" cy="80.88" rx="32.75" ry="33.25"/><path d="M111.37,115.12c-18.6,0-33.75-15.36-33.75-34.24s15.15-34.26,33.75-34.26S145.12,62,145.12,80.88,130,115.12,111.37,115.12Zm0-66.5c-17.5,0-31.75,14.47-31.75,32.26s14.25,32.24,31.75,32.24,31.75-14.46,31.75-32.24S128.88,48.62,111.37,48.62Z"/><circle cx="121.37" cy="66.38" r="6.75"/><path d="M37.58,143.81c-6,0-17-3.48-19.9-17a2.5,2.5,0,0,1,4.89-1c2.86,13.44,14.93,13,15.44,13a2.5,2.5,0,0,1,.23,5Z"/></g></g></svg>