<?xml version="1.0" standalone="no"?>
<!DOCTYPE svg PUBLIC "-//W3C//DTD SVG 20010904//EN"
 "http://www.w3.org/TR/2001/REC-SVG-20010904/DTD/svg10.dtd">
<svg version="1.0" xmlns="http://www.w3.org/2000/svg"
 width="700.000000pt" height="700.000000pt" viewBox="0 0 700.000000 700.000000"
 preserveAspectRatio="xMidYMid meet">
<metadata>
Created by potrace 1.11, written by Peter Selinger 2001-2013
</metadata>
<g transform="translate(0.000000,700.000000) scale(0.100000,-0.100000)"
fill="#000000" stroke="none">
<path d="M2648 6625 c-2 -2 -46 -6 -98 -9 -104 -8 -121 -10 -260 -32 -694
-109 -1254 -470 -1476 -951 -44 -97 -95 -259 -118 -378 -2 -11 -13 -56 -25
-100 -20 -78 -58 -245 -67 -295 -3 -14 -21 -99 -39 -190 -31 -148 -69 -361
-80 -447 -2 -18 -7 -48 -10 -65 -3 -18 -8 -60 -11 -93 -3 -33 -7 -73 -10 -90
-2 -16 -6 -120 -8 -231 -4 -205 6 -306 39 -404 12 -34 14 -69 9 -161 -6 -101
-4 -125 14 -185 28 -92 95 -201 181 -295 l70 -76 6 -99 c3 -54 7 -110 10 -124
2 -14 6 -44 10 -68 4 -23 8 -52 9 -65 11 -85 85 -373 115 -442 5 -11 26 -63
47 -115 231 -578 699 -1076 1279 -1360 203 -100 492 -197 665 -224 19 -3 62
-10 95 -16 203 -34 693 -35 895 -1 411 70 768 213 1080 435 94 67 94 67 194
150 141 118 379 375 430 465 5 9 12 18 16 21 25 18 195 307 248 420 87 189
177 445 208 595 17 85 36 186 40 215 3 19 7 46 9 60 7 38 18 130 20 175 2 22
3 473 4 1002 l1 961 103 49 c280 135 490 309 575 478 68 136 61 310 -16 412
-54 73 -180 130 -367 167 -177 36 -360 94 -600 191 -398 162 -711 270 -1115
389 -149 43 -505 135 -590 151 -8 2 -33 8 -55 13 -22 6 -87 20 -145 32 -58 12
-112 23 -121 25 -9 2 -34 6 -55 9 -22 4 -46 8 -54 11 -8 2 -33 6 -55 9 -22 4
-51 8 -65 11 -14 2 -38 7 -55 10 -16 3 -78 12 -137 20 -59 8 -124 16 -145 19
-98 14 -584 31 -595 21z m512 -429 c119 -11 274 -33 420 -61 74 -14 144 -27
155 -29 216 -41 653 -147 912 -222 285 -82 714 -231 958 -332 278 -115 370
-149 515 -191 110 -31 115 -32 220 -52 36 -7 67 -14 69 -15 9 -7 -47 -64 -110
-111 -209 -157 -587 -301 -1094 -416 -156 -36 -429 -82 -540 -92 -27 -3 -61
-7 -75 -10 -14 -3 -59 -8 -100 -11 -41 -3 -88 -7 -105 -10 -158 -24 -785 -23
-992 1 -251 30 -379 50 -608 96 -385 77 -715 184 -988 321 -118 59 -118 59
-145 41 -15 -10 -44 -27 -65 -38 -46 -23 -83 -65 -109 -123 -20 -43 -62 -227
-72 -312 -3 -25 -7 -54 -10 -65 -4 -20 -13 -81 -22 -140 -2 -16 -6 -41 -9 -55
-3 -14 -7 -45 -10 -69 -3 -23 -7 -55 -10 -70 -2 -14 -14 -84 -25 -156 -21
-132 -26 -161 -35 -204 -41 -207 -79 -357 -95 -376 -5 -6 -33 -10 -62 -9 -80
3 -258 26 -259 33 0 3 -3 15 -5 26 -8 31 -7 252 0 330 12 122 16 157 32 265
41 291 116 660 204 1015 28 110 52 208 55 217 14 60 91 206 148 283 43 57 151
158 227 213 81 57 260 149 360 184 90 32 234 74 275 81 17 3 64 12 105 20 41
9 98 18 125 22 28 3 66 8 85 10 19 2 76 7 125 11 50 3 91 7 92 8 6 5 393 -2
463 -8z m-1292 -1642 c276 -119 1008 -293 1387 -330 39 -3 73 -8 76 -10 30
-17 832 -27 1004 -11 44 4 107 9 140 12 67 5 238 25 265 30 9 2 43 6 76 10 78
8 384 62 454 80 30 8 67 16 83 19 15 3 35 7 45 10 9 3 30 7 46 10 16 3 58 14
95 25 131 39 171 49 175 42 5 -11 -1 -1815 -7 -1841 -6 -25 -9 -47 -22 -145
-10 -71 -52 -247 -80 -335 -228 -719 -740 -1268 -1394 -1494 -105 -37 -242
-75 -296 -82 -16 -3 -50 -9 -75 -14 -118 -23 -478 -33 -650 -18 -224 20 -478
85 -682 175 -184 80 -355 184 -508 307 -88 71 -259 239 -315 311 -22 27 -46
56 -53 63 -6 7 -45 64 -86 125 -77 116 -132 216 -180 327 -16 36 -34 79 -42
95 -19 44 -73 219 -91 295 -17 75 -18 80 -28 140 -4 25 -9 53 -10 62 -8 43
-17 175 -20 288 l-2 124 -34 26 c-43 32 -187 177 -200 201 -8 17 -5 18 33 13
78 -9 292 -6 342 5 105 25 174 72 218 152 38 69 103 253 122 349 3 14 14 70
26 125 11 54 23 113 25 130 3 16 10 53 15 80 14 74 19 105 25 155 3 25 8 56
10 70 3 14 7 43 11 65 3 22 8 54 10 70 3 17 7 44 10 60 5 43 25 176 29 200 2
11 4 26 4 33 1 15 4 15 49 -4z"/>
</g>
</svg>
